<?xml version="1.0" encoding="UTF-8"?>
<svg width="230px" height="43px" viewBox="0 0 230 43" version="1.1" xmlns="http://www.w3.org/2000/svg" xmlns:xlink="http://www.w3.org/1999/xlink">
    <!-- Generator: Sketch 54.1 (76490) - https://sketchapp.com -->
    <title>Logo_Lbc</title>
    <desc>Created with Sketch.</desc>
    <g id="Page-1" stroke="none" stroke-width="1" fill="none" fill-rule="evenodd">
        <g id="logo" fill="#FFFFFF" fill-rule="nonzero">
            <path d="M58.2901,35.62475 C61.8941,35.61875 64.1201,32.76075 64.1201,28.51475 C64.1201,24.26475 61.9001,21.41475 58.3001,21.41475 C54.7001,21.41475 52.4901,24.25475 52.4901,28.51475 C52.4901,32.77075 54.6961,35.61875 58.2901,35.62475 Z M60.9901,14.52475 C67.8601,14.52475 72.3901,20.44475 72.4901,28.41475 C72.4901,36.51475 67.7501,42.51475 60.8001,42.51475 C57.3021,42.59275 54.0181,40.83675 52.1401,37.88475 L52.0301,37.88475 L52.0301,41.99475 L44.4901,41.99475 L44.4901,5.91475 C44.4901,3.16475 46.3201,1.44475 48.4901,1.44475 C50.6601,1.44475 52.4901,3.16475 52.4901,5.91475 L52.4901,18.77475 L52.6001,18.77475 C54.5391,16.07775 57.6691,14.49275 60.9901,14.52475 Z M88.7501,35.62475 C92.3601,35.62475 94.5601,32.76475 94.5601,28.51475 C94.5601,24.26475 92.3601,21.41475 88.7501,21.41475 C85.1401,21.41475 82.9401,24.25475 82.9401,28.51475 C82.9401,32.77475 85.1401,35.62475 88.7501,35.62475 Z M88.7501,14.52475 C97.2501,14.52475 102.7501,20.33475 102.7501,28.52475 C102.7501,36.71475 97.2601,42.52475 88.7501,42.52475 C80.2401,42.52475 74.7501,36.71475 74.7501,28.52475 C74.7501,20.33475 80.2401,14.52475 88.7501,14.52475 Z M195.6007,14.52515 C197.7997,14.52515 199.6297,16.24515 199.6697,18.99515 L199.6697,41.99515 L191.6007,41.99515 L191.6007,18.99515 C191.6007,16.24515 193.3907,14.52515 195.6007,14.52515 Z M195.6007,0.47485 C198.3067,0.47485 200.4997,2.66885 200.4997,5.37485 C200.4997,8.08085 198.3067,10.27485 195.6007,10.27485 L195.5977,10.27485 C192.8917,10.27385 190.6987,8.07985 190.6997,5.37385 C190.6997,2.66785 192.8947,0.47485 195.6007,0.47485 Z M220.8399,14.52515 C226.4409,14.52515 229.4499,18.50415 229.4499,24.53515 L229.4499,41.99515 L221.3799,41.99515 L221.3799,26.79515 C221.3799,23.24515 219.7099,22.06515 217.6109,22.06515 C214.4899,22.06515 212.1199,24.69515 212.1199,30.29515 L212.1199,41.99515 L204.0499,41.99515 L204.0499,18.74515 C204.0499,16.10515 205.7799,14.54515 207.8199,14.54515 C209.8609,14.54515 211.5799,16.10515 211.5799,18.74515 L211.5799,19.74515 L211.6909,19.74515 C213.6049,16.51115 217.0819,14.52715 220.8399,14.52515 Z M174.17,35.62475 C177.78,35.62475 179.99,32.76475 179.99,28.51475 C179.99,24.26475 177.771,21.41475 174.17,21.41475 C170.57,21.41475 168.36,24.25475 168.36,28.51475 C168.36,32.77475 170.57,35.62475 174.17,35.62475 Z M174.17,14.52475 C182.681,14.52475 188.17,20.33475 188.17,28.52475 C188.17,36.71475 182.681,42.52475 174.17,42.52475 C165.66,42.52475 160.17,36.71475 160.17,28.52475 C160.17,20.33475 165.67,14.52475 174.17,14.52475 Z M148.2305,21.52515 C144.7305,21.52515 142.5805,24.10515 142.5805,28.52515 C142.5805,32.94515 144.7305,35.52515 148.2305,35.52515 C150.2365,35.60715 152.1235,34.57115 153.1295,32.83515 L153.2305,32.83515 L159.1005,36.60515 C157.0605,40.58515 152.7995,42.52515 147.9595,42.52515 C139.5605,42.52515 134.3905,36.71415 134.3905,28.52515 C134.3905,20.33515 139.5605,14.52515 147.9595,14.52515 C152.7995,14.52515 157.1005,16.44515 159.1005,20.44515 L153.2305,24.21415 L153.1295,24.21415 C152.1235,22.47815 150.2365,21.44315 148.2305,21.52515 Z M122.7706,14.52515 C128.3706,14.52515 131.3796,18.50415 131.4006,24.53515 L131.4006,41.99515 L123.3306,41.99515 L123.3306,26.79515 C123.3306,23.24515 121.6606,22.06515 119.5606,22.06515 C116.4406,22.06515 114.0706,24.69515 114.0706,30.29515 L114.0706,41.99515 L105.9906,41.99515 L105.9906,18.72515 C105.9906,16.08515 107.6906,14.54515 109.7406,14.54515 C111.7906,14.54515 113.5106,16.10515 113.5106,18.74515 L113.5106,19.74515 L113.6206,19.74515 C115.5336,16.50915 119.0116,14.52515 122.7706,14.52515 Z M22.5401,26.92455 C22.5641,27.94955 22.7461,28.96555 23.0801,29.93555 L32.0801,23.26455 C31.2661,21.76255 29.6671,20.85555 27.9601,20.92455 C25.4101,20.92455 22.5401,22.84455 22.5401,26.92455 Z M30.3601,35.92455 C33.2771,35.75755 35.8931,34.07155 37.2501,31.48555 L42.5601,35.32455 C40.5301,39.45455 36.3901,42.51455 29.3901,42.51455 C26.0781,42.50855 22.8801,41.30055 20.3901,39.11455 C16.8701,41.45455 13.8701,42.45455 10.8701,42.45455 C4.8201,42.45455 0.5501,38.40455 0.5501,32.32455 L0.5501,5.84455 C0.5501,3.10455 2.3701,1.38455 4.5501,1.38455 C6.7301,1.38455 8.5501,3.10455 8.5501,5.84455 L8.5501,31.65455 C8.5501,34.25455 9.6901,35.65455 12.0801,35.65455 C13.3801,35.65455 14.7901,34.90455 16.6201,33.90455 C15.7461,31.82555 15.3041,29.59055 15.3201,27.33455 C15.3201,21.62455 19.3901,14.52555 27.9401,14.52555 C35.3501,14.52555 39.3301,18.83455 40.9901,24.24455 L26.7201,34.48555 C27.6991,35.42255 29.0051,35.93955 30.3601,35.92455 Z" id="Logo_Lbc"></path>
        </g>
    </g>
</svg>